<svg xmlns="http://www.w3.org/2000/svg">
    <symbol>
        <path id="icon-facebook" d="M20.9,2H3.1A1.1,1.1,0,0,0,2,3.1V20.9A1.1,1.1,0,0,0,3.1,22h9.58V14.25h-2.6v-3h2.6V9a3.64,3.64,0,0,1,3.88-4,20.26,20.26,0,0,1,2.33.12v2.7H17.3c-1.26,0-1.5.6-1.5,1.47v1.93h3l-.39,3H15.8V22h5.1A1.1,1.1,0,0,0,22,20.9V3.1A1.1,1.1,0,0,0,20.9,2Z"/>
    </symbol>

    <symbol>
        <path id="icon-telegram" d="M11.99432,2a10,10,0,1,0,10,10A9.99917,9.99917,0,0,0,11.99432,2Zm3.17951,15.15247a.70547.70547,0,0,1-1.002.3515l-2.71467-2.10938L9.71484,17.002a.29969.29969,0,0,1-.285.03894l.334-2.98846.01069.00848.00683-.059s4.885-4.44751,5.084-4.637c.20147-.189.135-.23.135-.23.01147-.23053-.36152,0-.36152,0L8.16632,13.299l-2.69549-.918s-.414-.1485-.453-.475c-.041-.324.46649-.5.46649-.5l10.717-4.25751s.881-.39252.881.25751Z"/>
    </symbol>

    <symbol>
        <path id="icon-instagram" d="M17.34,5.46h0a1.2,1.2,0,1,0,1.2,1.2A1.2,1.2,0,0,0,17.34,5.46Zm4.6,2.42a7.59,7.59,0,0,0-.46-2.43,4.94,4.94,0,0,0-1.16-1.77,4.7,4.7,0,0,0-1.77-1.15,7.3,7.3,0,0,0-2.43-.47C15.06,2,14.72,2,12,2s-3.06,0-4.12.06a7.3,7.3,0,0,0-2.43.47A4.78,4.78,0,0,0,3.68,3.68,4.7,4.7,0,0,0,2.53,5.45a7.3,7.3,0,0,0-.47,2.43C2,8.94,2,9.28,2,12s0,3.06.06,4.12a7.3,7.3,0,0,0,.47,2.43,4.7,4.7,0,0,0,1.15,1.77,4.78,4.78,0,0,0,1.77,1.15,7.3,7.3,0,0,0,2.43.47C8.94,22,9.28,22,12,22s3.06,0,4.12-.06a7.3,7.3,0,0,0,2.43-.47,4.7,4.7,0,0,0,1.77-1.15,4.85,4.85,0,0,0,1.16-1.77,7.59,7.59,0,0,0,.46-2.43c0-1.06.06-1.4.06-4.12S22,8.94,21.94,7.88ZM20.14,16a5.61,5.61,0,0,1-.34,1.86,3.06,3.06,0,0,1-.75,1.15,3.19,3.19,0,0,1-1.15.75,5.61,5.61,0,0,1-1.86.34c-1,.05-1.37.06-4,.06s-3,0-4-.06A5.73,5.73,0,0,1,6.1,19.8,3.27,3.27,0,0,1,5,19.05a3,3,0,0,1-.74-1.15A5.54,5.54,0,0,1,3.86,16c0-1-.06-1.37-.06-4s0-3,.06-4A5.54,5.54,0,0,1,4.21,6.1,3,3,0,0,1,5,5,3.14,3.14,0,0,1,6.1,4.2,5.73,5.73,0,0,1,8,3.86c1,0,1.37-.06,4-.06s3,0,4,.06a5.61,5.61,0,0,1,1.86.34A3.06,3.06,0,0,1,19.05,5,3.06,3.06,0,0,1,19.8,6.1,5.61,5.61,0,0,1,20.14,8c.05,1,.06,1.37.06,4S20.19,15,20.14,16ZM12,6.87A5.13,5.13,0,1,0,17.14,12,5.12,5.12,0,0,0,12,6.87Zm0,8.46A3.33,3.33,0,1,1,15.33,12,3.33,3.33,0,0,1,12,15.33Z"/>
    </symbol>
</svg>
